<svg width="32" height="43" viewBox="0 0 32 43" fill="none" xmlns="http://www.w3.org/2000/svg">
<path d="M7.20703 19.9577C7.20703 21.2093 7.64509 22.2731 8.52121 23.1493C9.39733 24.0254 10.4612 24.4634 11.7128 24.4634C12.6604 24.4634 13.5187 24.1952 14.2875 23.6588L16.1649 25.5094C16.3079 25.6703 16.4912 25.7508 16.7147 25.7508C16.9382 25.7508 17.1259 25.6748 17.2779 25.5228C17.4299 25.3708 17.5059 25.1831 17.5059 24.9596C17.5059 24.7361 17.4254 24.5528 17.2645 24.4098L15.4139 22.5324C15.9503 21.7636 16.2185 20.9053 16.2185 19.9577C16.2185 18.7061 15.7805 17.6422 14.9043 16.7661C14.0282 15.89 12.9644 15.4519 11.7128 15.4519C10.4612 15.4519 9.39733 15.89 8.52121 16.7661C7.64509 17.6422 7.20703 18.7061 7.20703 19.9577ZM8.49439 19.9577C8.49439 19.0637 8.80729 18.3038 9.43308 17.678C10.0589 17.0522 10.8188 16.7393 11.7128 16.7393C12.6068 16.7393 13.3667 17.0522 13.9925 17.678C14.6183 18.3038 14.9312 19.0637 14.9312 19.9577C14.9312 20.8517 14.6183 21.6116 13.9925 22.2374C13.3667 22.8632 12.6068 23.1761 11.7128 23.1761C10.8188 23.1761 10.0589 22.8632 9.43308 22.2374C8.80729 21.6116 8.49439 20.8517 8.49439 19.9577Z" fill="#3E4146"/>
</svg>
