<svg width="32" height="43" viewBox="0 0 32 43" fill="none" xmlns="http://www.w3.org/2000/svg">
<path d="M7.20679 19.9577C7.20679 21.2093 7.64485 22.2731 8.52096 23.1493C9.39708 24.0254 10.4609 24.4634 11.7125 24.4634C12.6602 24.4634 13.5184 24.1952 14.2872 23.6588L16.1646 25.5094C16.3077 25.6703 16.491 25.7508 16.7144 25.7508C16.9379 25.7508 17.1257 25.6748 17.2777 25.5228C17.4296 25.3708 17.5056 25.1831 17.5056 24.9596C17.5056 24.7361 17.4252 24.5528 17.2643 24.4098L15.4137 22.5324C15.9501 21.7636 16.2183 20.9053 16.2183 19.9577C16.2183 18.7061 15.7802 17.6422 14.9041 16.7661C14.028 15.89 12.9641 15.4519 11.7125 15.4519C10.4609 15.4519 9.39708 15.89 8.52096 16.7661C7.64485 17.6422 7.20679 18.7061 7.20679 19.9577ZM8.49414 19.9577C8.49414 19.0637 8.80704 18.3038 9.43284 17.678C10.0586 17.0522 10.8185 16.7393 11.7125 16.7393C12.6065 16.7393 13.3664 17.0522 13.9922 17.678C14.618 18.3038 14.9309 19.0637 14.9309 19.9577C14.9309 20.8517 14.618 21.6116 13.9922 22.2374C13.3664 22.8632 12.6065 23.1761 11.7125 23.1761C10.8185 23.1761 10.0586 22.8632 9.43284 22.2374C8.80704 21.6116 8.49414 20.8517 8.49414 19.9577Z" fill="#3E4146"/>
</svg>
