<svg width="50" height="50" viewBox="0 0 50 50" fill="none" xmlns="http://www.w3.org/2000/svg">
<path d="M14.272 25.5363C14.272 26.3945 14.3077 27.1857 14.3793 27.9098L14.4865 28.996L14.6743 29.814C14.7994 30.3594 15.0229 30.793 15.3448 31.1148C15.756 31.5439 16.1941 31.7942 16.6589 31.8658C17.1238 31.9373 17.4725 31.9999 17.7049 32.0535C18.134 32.0893 18.7598 32.1161 19.5823 32.134C20.3869 32.1697 21.1915 32.1965 21.9961 32.2144C22.8007 32.2323 23.507 32.2412 24.1149 32.2412L24.9999 32.2681C24.9999 32.2681 25.2503 32.2681 25.7509 32.2681C26.2515 32.2502 26.8773 32.2368 27.6283 32.2278C28.3793 32.2189 29.1928 32.1965 30.0689 32.1608C30.945 32.125 31.7586 32.0803 32.5095 32.0267C32.7241 32.0088 33.0325 31.9596 33.4348 31.8792C33.8371 31.7987 34.2439 31.5439 34.6551 31.1148C34.977 30.793 35.2005 30.3594 35.3256 29.814L35.5134 28.996C35.5134 28.996 35.5491 28.634 35.6206 27.9098C35.6922 27.1857 35.7279 26.3945 35.7279 25.5363V23.9003C35.7279 23.0241 35.6922 22.224 35.6206 21.4999L35.5134 20.4137C35.5134 20.4137 35.4508 20.141 35.3256 19.5957C35.2005 19.0503 34.977 18.6167 34.6551 18.2949C34.2439 17.8658 33.8371 17.611 33.4348 17.5305C33.0325 17.4501 32.7241 17.4009 32.5095 17.383C31.7586 17.3294 30.945 17.2847 30.0689 17.2489C29.1928 17.231 28.3793 17.2131 27.6283 17.1953C26.8773 17.1774 26.2515 17.1684 25.7509 17.1684H24.9999C24.9999 17.1684 24.7496 17.1684 24.249 17.1684C23.7483 17.1684 23.1225 17.1774 22.3716 17.1953C21.6206 17.2131 20.8071 17.231 19.931 17.2489C19.0549 17.2847 18.2413 17.3294 17.4904 17.383C17.2758 17.4009 16.9674 17.4501 16.5651 17.5305C16.1628 17.611 15.756 17.8658 15.3448 18.2949C15.0229 18.6167 14.7994 19.0503 14.6743 19.5957L14.4865 20.4137C14.4865 20.4137 14.4508 20.7757 14.3793 21.4999C14.3077 22.224 14.272 23.0241 14.272 23.9003V25.5363ZM22.7739 27.4941V21.4596L28.5938 24.4903L22.7739 27.4941Z" fill="white"/>
</svg>
