<svg width="50" height="50" viewBox="0 0 50 50" fill="none" xmlns="http://www.w3.org/2000/svg">
<path d="M14.6743 24.7319C14.6743 26.1266 14.6788 27.0474 14.6877 27.4944C14.6967 27.9414 14.7101 28.442 14.728 28.9963C14.7637 29.5506 14.8218 30.0244 14.9023 30.4178C14.9827 30.8111 15.0856 31.1687 15.2107 31.4906C15.3538 31.8303 15.5191 32.1477 15.7069 32.4427C15.8946 32.7377 16.1315 33.0282 16.4176 33.3143C16.7037 33.6004 16.9942 33.8373 17.2893 34.0251C17.5843 34.2128 17.9016 34.3782 18.2414 34.5212C18.5632 34.6464 18.9208 34.7492 19.3142 34.8296C19.7075 34.9101 20.1813 34.9682 20.7356 35.004C21.2899 35.0219 21.7905 35.0353 22.2375 35.0442C22.6845 35.0531 23.6054 35.0576 25 35.0576C26.3946 35.0576 27.3154 35.0531 27.7624 35.0442C28.2094 35.0353 28.7101 35.0219 29.2644 35.004C29.8186 34.9682 30.2925 34.9101 30.6858 34.8296C31.0792 34.7492 31.4368 34.6464 31.7586 34.5212C32.0983 34.3782 32.4157 34.2128 32.7107 34.0251C33.0057 33.8373 33.2963 33.6004 33.5824 33.3143C33.8684 33.0282 34.1054 32.7377 34.2931 32.4427C34.4808 32.1477 34.6462 31.8303 34.7893 31.4906C34.9144 31.1687 35.0172 30.8111 35.0977 30.4178C35.1781 30.0244 35.2363 29.5506 35.272 28.9963C35.2899 28.442 35.3033 27.9414 35.3122 27.4944C35.3212 27.0474 35.3257 26.1266 35.3257 24.7319C35.3257 23.3373 35.3212 22.4165 35.3122 21.9695C35.3033 21.5225 35.2899 21.0219 35.272 20.4676C35.2363 19.9133 35.1781 19.4395 35.0977 19.0461C35.0172 18.6528 34.9144 18.2952 34.7893 17.9733C34.6462 17.6336 34.4808 17.3162 34.2931 17.0212C34.1054 16.7262 33.8684 16.4357 33.5824 16.1496C33.2963 15.8635 33.0057 15.6266 32.7107 15.4388C32.4157 15.2511 32.0983 15.0857 31.7586 14.9427C31.4368 14.8175 31.0792 14.7147 30.6858 14.6342C30.2925 14.5538 29.8186 14.4957 29.2644 14.4599C28.7101 14.442 28.2094 14.4286 27.7624 14.4197C27.3154 14.4107 26.3946 14.4063 25 14.4063C23.6054 14.4063 22.6845 14.4107 22.2375 14.4197C21.7905 14.4286 21.2899 14.442 20.7356 14.4599C20.1813 14.4957 19.7075 14.5538 19.3142 14.6342C18.9208 14.7147 18.5632 14.8175 18.2414 14.9427C17.9016 15.0857 17.5843 15.2511 17.2893 15.4388C16.9942 15.6266 16.7037 15.8635 16.4176 16.1496C16.1315 16.4357 15.8946 16.7262 15.7069 17.0212C15.5191 17.3162 15.3538 17.6336 15.2107 17.9733C15.0856 18.2952 14.9827 18.6528 14.9023 19.0461C14.8218 19.4395 14.7637 19.9133 14.728 20.4676C14.7101 21.0219 14.6967 21.5225 14.6877 21.9695C14.6788 22.4165 14.6743 23.3373 14.6743 24.7319ZM16.6054 28.889C16.5696 28.3526 16.5517 27.8699 16.5517 27.4408C16.5517 27.0116 16.5517 26.1087 16.5517 24.7319C16.5517 23.3552 16.5517 22.4523 16.5517 22.0231C16.5517 21.594 16.5696 21.1023 16.6054 20.548C16.6232 20.0474 16.6679 19.6496 16.7395 19.3546C16.811 19.0595 16.8825 18.8226 16.954 18.6438C17.0434 18.3935 17.1507 18.1789 17.2758 18.0001C17.401 17.8213 17.553 17.6425 17.7318 17.4637C17.9106 17.2849 18.0894 17.133 18.2682 17.0078C18.447 16.8827 18.6615 16.7754 18.9119 16.686C19.0907 16.6145 19.3276 16.5429 19.6226 16.4714C19.9176 16.3999 20.3154 16.3552 20.8161 16.3373C21.3704 16.3016 21.8621 16.2792 22.2912 16.2703C22.7203 16.2613 23.6232 16.2569 25 16.2569C26.3767 16.2569 27.2797 16.2613 27.7088 16.2703C28.1379 16.2792 28.6296 16.3016 29.1839 16.3373C29.6845 16.3552 30.0824 16.3999 30.3774 16.4714C30.6724 16.5429 30.9093 16.6145 31.0881 16.686C31.3205 16.7754 31.5306 16.8827 31.7184 17.0078C31.9061 17.133 32.0894 17.2849 32.2682 17.4637C32.447 17.6425 32.599 17.8213 32.7241 18.0001C32.8493 18.1789 32.9566 18.3935 33.046 18.6438C33.1175 18.8226 33.189 19.0595 33.2605 19.3546C33.332 19.6496 33.3767 20.0474 33.3946 20.548C33.4304 21.1023 33.4483 21.594 33.4483 22.0231C33.4483 22.4523 33.4483 23.3552 33.4483 24.7319C33.4483 26.1087 33.4483 27.0116 33.4483 27.4408C33.4483 27.8699 33.4304 28.3526 33.3946 28.889C33.3767 29.4076 33.332 29.8143 33.2605 30.1093C33.189 30.4044 33.1175 30.6413 33.046 30.8201C32.9566 31.0525 32.8493 31.2626 32.7241 31.4503C32.599 31.6381 32.447 31.8213 32.2682 32.0001C32.0894 32.1789 31.9106 32.3309 31.7318 32.4561C31.553 32.5812 31.3384 32.6885 31.0881 32.7779C30.9093 32.8494 30.6724 32.921 30.3774 32.9925C30.0824 33.064 29.6845 33.1087 29.1839 33.1266C28.6296 33.1445 28.1379 33.1579 27.7088 33.1668C27.2797 33.1758 26.3767 33.1802 25 33.1802C23.6232 33.1802 22.7203 33.1758 22.2912 33.1668C21.8621 33.1579 21.3704 33.1445 20.8161 33.1266C20.3154 33.1087 19.9176 33.064 19.6226 32.9925C19.3276 32.921 19.0907 32.8494 18.9119 32.7779C18.6794 32.6885 18.4693 32.5812 18.2816 32.4561C18.0939 32.3309 17.9106 32.1789 17.7318 32.0001C17.553 31.8213 17.401 31.6381 17.2758 31.4503C17.1507 31.2626 17.0434 31.0525 16.954 30.8201C16.8825 30.6413 16.811 30.3999 16.7395 30.0959C16.6679 29.792 16.6232 29.3897 16.6054 28.889ZM19.6896 24.7319C19.6896 25.465 19.8327 26.1534 20.1188 26.7971C20.387 27.4408 20.7624 28.004 21.2452 28.4867C21.728 28.9695 22.2912 29.345 22.9349 29.6132C23.5785 29.8993 24.2669 30.0423 25 30.0423C25.7331 30.0423 26.4214 29.8993 27.0651 29.6132C27.7088 29.345 28.272 28.9695 28.7548 28.4867C29.2375 28.004 29.613 27.4408 29.8812 26.7971C30.1673 26.1534 30.3103 25.465 30.3103 24.7319C30.3103 23.9989 30.1673 23.3105 29.8812 22.6668C29.613 22.0231 29.2375 21.4599 28.7548 20.9772C28.272 20.4944 27.7088 20.1189 27.0651 19.8507C26.4214 19.5646 25.7331 19.4216 25 19.4216C24.2669 19.4216 23.5785 19.5646 22.9349 19.8507C22.2912 20.1189 21.728 20.4944 21.2452 20.9772C20.7624 21.4599 20.387 22.0231 20.1188 22.6668C19.8327 23.3105 19.6896 23.9989 19.6896 24.7319ZM21.567 24.7319C21.567 23.7843 21.9023 22.9752 22.5728 22.3047C23.2433 21.6342 24.0523 21.299 25 21.299C25.9476 21.299 26.7567 21.6342 27.4272 22.3047C28.0977 22.9752 28.4329 23.7843 28.4329 24.7319C28.4329 25.6796 28.0977 26.4887 27.4272 27.1592C26.7567 27.8296 25.9476 28.1649 25 28.1649C24.0523 28.1649 23.2433 27.8296 22.5728 27.1592C21.9023 26.4887 21.567 25.6796 21.567 24.7319ZM29.2644 19.207C29.2644 18.8673 29.385 18.5768 29.6264 18.3354C29.8678 18.094 30.1673 17.9733 30.5249 17.9733C30.8646 17.9733 31.1552 18.094 31.3965 18.3354C31.6379 18.5768 31.7586 18.8673 31.7586 19.207C31.7586 19.5646 31.6379 19.8641 31.3965 20.1055C31.1552 20.3469 30.8646 20.4676 30.5249 20.4676C30.1673 20.4676 29.8678 20.3469 29.6264 20.1055C29.385 19.8641 29.2644 19.5646 29.2644 19.207Z" fill="white"/>
</svg>
