<svg width="50" height="50" viewBox="0 0 50 50" fill="none" xmlns="http://www.w3.org/2000/svg">
<path d="M14.272 25.5365C14.272 26.3947 14.3077 27.1859 14.3793 27.9101L14.4865 28.9963L14.6743 29.8143C14.7994 30.3596 15.0229 30.7932 15.3448 31.1151C15.756 31.5442 16.1941 31.7945 16.6589 31.866C17.1238 31.9375 17.4725 32.0001 17.7049 32.0538C18.134 32.0895 18.7598 32.1163 19.5823 32.1342C20.3869 32.17 21.1915 32.1968 21.9961 32.2147C22.8007 32.2326 23.507 32.2415 24.1149 32.2415L24.9999 32.2683C24.9999 32.2683 25.2503 32.2683 25.7509 32.2683C26.2515 32.2504 26.8773 32.237 27.6283 32.2281C28.3793 32.2191 29.1928 32.1968 30.0689 32.161C30.945 32.1253 31.7586 32.0806 32.5095 32.0269C32.7241 32.0091 33.0325 31.9599 33.4348 31.8794C33.8371 31.799 34.2439 31.5442 34.6551 31.1151C34.977 30.7932 35.2005 30.3596 35.3256 29.8143L35.5134 28.9963C35.5134 28.9963 35.5491 28.6342 35.6206 27.9101C35.6922 27.1859 35.7279 26.3947 35.7279 25.5365V23.9005C35.7279 23.0244 35.6922 22.2242 35.6206 21.5001L35.5134 20.4139C35.5134 20.4139 35.4508 20.1412 35.3256 19.5959C35.2005 19.0506 34.977 18.617 34.6551 18.2951C34.2439 17.866 33.8371 17.6112 33.4348 17.5308C33.0325 17.4503 32.7241 17.4011 32.5095 17.3833C31.7586 17.3296 30.945 17.2849 30.0689 17.2492C29.1928 17.2313 28.3793 17.2134 27.6283 17.1955C26.8773 17.1776 26.2515 17.1687 25.7509 17.1687H24.9999C24.9999 17.1687 24.7496 17.1687 24.249 17.1687C23.7483 17.1687 23.1225 17.1776 22.3716 17.1955C21.6206 17.2134 20.8071 17.2313 19.931 17.2492C19.0549 17.2849 18.2413 17.3296 17.4904 17.3833C17.2758 17.4011 16.9674 17.4503 16.5651 17.5308C16.1628 17.6112 15.756 17.866 15.3448 18.2951C15.0229 18.617 14.7994 19.0506 14.6743 19.5959L14.4865 20.4139C14.4865 20.4139 14.4508 20.776 14.3793 21.5001C14.3077 22.2242 14.272 23.0244 14.272 23.9005V25.5365ZM22.7739 27.4944V21.4599L28.5938 24.4905L22.7739 27.4944Z" fill="white"/>
</svg>
