<svg width="26" height="26" viewBox="0 0 26 26" fill="none" xmlns="http://www.w3.org/2000/svg">
<path d="M4.63232 13.5726C4.63232 14.7846 5.064 15.8222 5.92734 16.6856C6.79069 17.5489 7.82006 17.9806 9.01547 17.9806C10.078 17.9806 11.0078 17.6319 11.8047 16.9346L14.0461 18.8273C13.8801 19.1594 13.7971 19.5247 13.7971 19.9231C13.7971 20.6869 14.071 21.3427 14.6189 21.8906C15.1668 22.4385 15.8226 22.7124 16.5863 22.7124C17.3501 22.7124 18.0059 22.4385 18.5538 21.8906C19.1017 21.3427 19.3756 20.6869 19.3756 19.9231C19.3756 19.1594 19.1017 18.5036 18.5538 17.9557C18.0059 17.4078 17.3501 17.1339 16.5863 17.1339C16.0219 17.1339 15.5072 17.2833 15.0423 17.5821L12.8507 15.7392C13.216 15.0751 13.3986 14.3612 13.3986 13.5975C13.3986 12.6013 13.0998 11.7047 12.5021 10.9078L15.3909 7.72007C15.7562 7.88609 16.1547 7.96911 16.5863 7.96911C17.3501 7.96911 18.0059 7.69516 18.5538 7.14727C19.1017 6.59938 19.3756 5.94357 19.3756 5.17984C19.3756 4.41611 19.1017 3.7603 18.5538 3.2124C18.0059 2.66451 17.3501 2.39056 16.5863 2.39056C15.8226 2.39056 15.1668 2.66451 14.6189 3.2124C14.071 3.7603 13.7971 4.41611 13.7971 5.17984C13.7971 5.71113 13.9299 6.19261 14.1955 6.62428L11.3067 9.86183C10.6093 9.43015 9.84561 9.21432 9.01547 9.21432C7.82006 9.21432 6.79069 9.63769 5.92734 10.4844C5.064 11.3312 4.63232 12.3606 4.63232 13.5726Z" fill="white"/>
</svg>
