<svg width="26" height="26" viewBox="0 0 26 26" fill="none" xmlns="http://www.w3.org/2000/svg">
<path d="M4.63208 13.5728C4.63208 14.7848 5.06375 15.8225 5.9271 16.6858C6.79045 17.5492 7.81982 17.9808 9.01522 17.9808C10.0778 17.9808 11.0076 17.6322 11.8045 16.9349L14.0459 18.8276C13.8798 19.1596 13.7968 19.5249 13.7968 19.9234C13.7968 20.6871 14.0708 21.3429 14.6187 21.8908C15.1666 22.4387 15.8224 22.7126 16.5861 22.7126C17.3498 22.7126 18.0056 22.4387 18.5535 21.8908C19.1014 21.3429 19.3754 20.6871 19.3754 19.9234C19.3754 19.1596 19.1014 18.5038 18.5535 17.9559C18.0056 17.408 17.3498 17.1341 16.5861 17.1341C16.0216 17.1341 15.5069 17.2835 15.042 17.5824L12.8505 15.7395C13.2157 15.0754 13.3984 14.3614 13.3984 13.5977C13.3984 12.6015 13.0995 11.705 12.5018 10.908L15.3907 7.72031C15.756 7.88634 16.1544 7.96935 16.5861 7.96935C17.3498 7.96935 18.0056 7.69541 18.5535 7.14751C19.1014 6.59962 19.3754 5.94381 19.3754 5.18008C19.3754 4.41635 19.1014 3.76054 18.5535 3.21265C18.0056 2.66475 17.3498 2.39081 16.5861 2.39081C15.8224 2.39081 15.1666 2.66475 14.6187 3.21265C14.0708 3.76054 13.7968 4.41635 13.7968 5.18008C13.7968 5.71137 13.9297 6.19285 14.1953 6.62453L11.3064 9.86207C10.6091 9.4304 9.84536 9.21456 9.01522 9.21456C7.81982 9.21456 6.79045 9.63793 5.9271 10.4847C5.06375 11.3314 4.63208 12.3608 4.63208 13.5728Z" fill="white"/>
</svg>
