<svg width="50" height="50" viewBox="0 0 50 50" fill="none" xmlns="http://www.w3.org/2000/svg">
<path d="M14.6743 24.7317C14.6743 26.1263 14.6788 27.0472 14.6877 27.4942C14.6967 27.9412 14.7101 28.4418 14.728 28.9961C14.7637 29.5503 14.8218 30.0242 14.9023 30.4175C14.9827 30.8109 15.0856 31.1685 15.2107 31.4903C15.3538 31.83 15.5191 32.1474 15.7069 32.4424C15.8946 32.7374 16.1315 33.028 16.4176 33.3141C16.7037 33.6002 16.9942 33.8371 17.2893 34.0248C17.5843 34.2125 17.9016 34.3779 18.2414 34.521C18.5632 34.6461 18.9208 34.7489 19.3142 34.8294C19.7075 34.9099 20.1813 34.968 20.7356 35.0037C21.2899 35.0216 21.7905 35.035 22.2375 35.044C22.6845 35.0529 23.6054 35.0574 25 35.0574C26.3946 35.0574 27.3154 35.0529 27.7624 35.044C28.2094 35.035 28.7101 35.0216 29.2644 35.0037C29.8186 34.968 30.2925 34.9099 30.6858 34.8294C31.0792 34.7489 31.4368 34.6461 31.7586 34.521C32.0983 34.3779 32.4157 34.2125 32.7107 34.0248C33.0057 33.8371 33.2963 33.6002 33.5824 33.3141C33.8684 33.028 34.1054 32.7374 34.2931 32.4424C34.4808 32.1474 34.6462 31.83 34.7893 31.4903C34.9144 31.1685 35.0172 30.8109 35.0977 30.4175C35.1781 30.0242 35.2363 29.5503 35.272 28.9961C35.2899 28.4418 35.3033 27.9412 35.3122 27.4942C35.3212 27.0472 35.3257 26.1263 35.3257 24.7317C35.3257 23.3371 35.3212 22.4163 35.3122 21.9693C35.3033 21.5223 35.2899 21.0216 35.272 20.4673C35.2363 19.9131 35.1781 19.4392 35.0977 19.0459C35.0172 18.6525 34.9144 18.2949 34.7893 17.9731C34.6462 17.6334 34.4808 17.316 34.2931 17.021C34.1054 16.726 33.8684 16.4354 33.5824 16.1493C33.2963 15.8632 33.0057 15.6263 32.7107 15.4386C32.4157 15.2509 32.0983 15.0855 31.7586 14.9424C31.4368 14.8173 31.0792 14.7145 30.6858 14.634C30.2925 14.5535 29.8186 14.4954 29.2644 14.4597C28.7101 14.4418 28.2094 14.4284 27.7624 14.4194C27.3154 14.4105 26.3946 14.406 25 14.406C23.6054 14.406 22.6845 14.4105 22.2375 14.4194C21.7905 14.4284 21.2899 14.4418 20.7356 14.4597C20.1813 14.4954 19.7075 14.5535 19.3142 14.634C18.9208 14.7145 18.5632 14.8173 18.2414 14.9424C17.9016 15.0855 17.5843 15.2509 17.2893 15.4386C16.9942 15.6263 16.7037 15.8632 16.4176 16.1493C16.1315 16.4354 15.8946 16.726 15.7069 17.021C15.5191 17.316 15.3538 17.6334 15.2107 17.9731C15.0856 18.2949 14.9827 18.6525 14.9023 19.0459C14.8218 19.4392 14.7637 19.9131 14.728 20.4673C14.7101 21.0216 14.6967 21.5223 14.6877 21.9693C14.6788 22.4163 14.6743 23.3371 14.6743 24.7317ZM16.6054 28.8888C16.5696 28.3524 16.5517 27.8696 16.5517 27.4405C16.5517 27.0114 16.5517 26.1085 16.5517 24.7317C16.5517 23.3549 16.5517 22.452 16.5517 22.0229C16.5517 21.5938 16.5696 21.1021 16.6054 20.5478C16.6232 20.0472 16.6679 19.6493 16.7395 19.3543C16.811 19.0593 16.8825 18.8224 16.954 18.6436C17.0434 18.3933 17.1507 18.1787 17.2758 17.9999C17.401 17.8211 17.553 17.6423 17.7318 17.4635C17.9106 17.2847 18.0894 17.1327 18.2682 17.0076C18.447 16.8824 18.6615 16.7751 18.9119 16.6857C19.0907 16.6142 19.3276 16.5427 19.6226 16.4712C19.9176 16.3996 20.3154 16.3549 20.8161 16.3371C21.3704 16.3013 21.8621 16.279 22.2912 16.27C22.7203 16.2611 23.6232 16.2566 25 16.2566C26.3767 16.2566 27.2797 16.2611 27.7088 16.27C28.1379 16.279 28.6296 16.3013 29.1839 16.3371C29.6845 16.3549 30.0824 16.3996 30.3774 16.4712C30.6724 16.5427 30.9093 16.6142 31.0881 16.6857C31.3205 16.7751 31.5306 16.8824 31.7184 17.0076C31.9061 17.1327 32.0894 17.2847 32.2682 17.4635C32.447 17.6423 32.599 17.8211 32.7241 17.9999C32.8493 18.1787 32.9566 18.3933 33.046 18.6436C33.1175 18.8224 33.189 19.0593 33.2605 19.3543C33.332 19.6493 33.3767 20.0472 33.3946 20.5478C33.4304 21.1021 33.4483 21.5938 33.4483 22.0229C33.4483 22.452 33.4483 23.3549 33.4483 24.7317C33.4483 26.1085 33.4483 27.0114 33.4483 27.4405C33.4483 27.8696 33.4304 28.3524 33.3946 28.8888C33.3767 29.4073 33.332 29.8141 33.2605 30.1091C33.189 30.4041 33.1175 30.641 33.046 30.8198C32.9566 31.0523 32.8493 31.2624 32.7241 31.4501C32.599 31.6378 32.447 31.8211 32.2682 31.9999C32.0894 32.1787 31.9106 32.3307 31.7318 32.4558C31.553 32.581 31.3384 32.6883 31.0881 32.7777C30.9093 32.8492 30.6724 32.9207 30.3774 32.9922C30.0824 33.0638 29.6845 33.1085 29.1839 33.1263C28.6296 33.1442 28.1379 33.1576 27.7088 33.1666C27.2797 33.1755 26.3767 33.18 25 33.18C23.6232 33.18 22.7203 33.1755 22.2912 33.1666C21.8621 33.1576 21.3704 33.1442 20.8161 33.1263C20.3154 33.1085 19.9176 33.0638 19.6226 32.9922C19.3276 32.9207 19.0907 32.8492 18.9119 32.7777C18.6794 32.6883 18.4693 32.581 18.2816 32.4558C18.0939 32.3307 17.9106 32.1787 17.7318 31.9999C17.553 31.8211 17.401 31.6378 17.2758 31.4501C17.1507 31.2624 17.0434 31.0523 16.954 30.8198C16.8825 30.641 16.811 30.3996 16.7395 30.0957C16.6679 29.7917 16.6232 29.3894 16.6054 28.8888ZM19.6896 24.7317C19.6896 25.4648 19.8327 26.1532 20.1188 26.7968C20.387 27.4405 20.7624 28.0037 21.2452 28.4865C21.728 28.9693 22.2912 29.3447 22.9349 29.6129C23.5785 29.899 24.2669 30.042 25 30.042C25.7331 30.042 26.4214 29.899 27.0651 29.6129C27.7088 29.3447 28.272 28.9693 28.7548 28.4865C29.2375 28.0037 29.613 27.4405 29.8812 26.7968C30.1673 26.1532 30.3103 25.4648 30.3103 24.7317C30.3103 23.9986 30.1673 23.3102 29.8812 22.6666C29.613 22.0229 29.2375 21.4597 28.7548 20.9769C28.272 20.4942 27.7088 20.1187 27.0651 19.8505C26.4214 19.5644 25.7331 19.4214 25 19.4214C24.2669 19.4214 23.5785 19.5644 22.9349 19.8505C22.2912 20.1187 21.728 20.4942 21.2452 20.9769C20.7624 21.4597 20.387 22.0229 20.1188 22.6666C19.8327 23.3102 19.6896 23.9986 19.6896 24.7317ZM21.567 24.7317C21.567 23.7841 21.9023 22.975 22.5728 22.3045C23.2433 21.634 24.0523 21.2988 25 21.2988C25.9476 21.2988 26.7567 21.634 27.4272 22.3045C28.0977 22.975 28.4329 23.7841 28.4329 24.7317C28.4329 25.6793 28.0977 26.4884 27.4272 27.1589C26.7567 27.8294 25.9476 28.1647 25 28.1647C24.0523 28.1647 23.2433 27.8294 22.5728 27.1589C21.9023 26.4884 21.567 25.6793 21.567 24.7317ZM29.2644 19.2068C29.2644 18.8671 29.385 18.5765 29.6264 18.3352C29.8678 18.0938 30.1673 17.9731 30.5249 17.9731C30.8646 17.9731 31.1552 18.0938 31.3965 18.3352C31.6379 18.5765 31.7586 18.8671 31.7586 19.2068C31.7586 19.5644 31.6379 19.8639 31.3965 20.1053C31.1552 20.3466 30.8646 20.4673 30.5249 20.4673C30.1673 20.4673 29.8678 20.3466 29.6264 20.1053C29.385 19.8639 29.2644 19.5644 29.2644 19.2068Z" fill="white"/>
</svg>
